<svg xmlns="http://www.w3.org/2000/svg" width="13.694" height="13.694" viewBox="0 0 13.694 13.694">
  <path id="Path_19997" data-name="Path 19997" d="M13.64,3.369h-.685V2.685a.685.685,0,1,0-1.369,0v.685H6.108V2.685A.647.647,0,0,0,5.424,2a.647.647,0,0,0-.685.685v.685H4.054A2.017,2.017,0,0,0,2,5.424v.685H15.694V5.424A2.017,2.017,0,0,0,13.64,3.369ZM2,13.64a2.017,2.017,0,0,0,2.054,2.054H13.64a2.017,2.017,0,0,0,2.054-2.054V7.478H2ZM12.271,8.847a.685.685,0,1,1-.685.685A.647.647,0,0,1,12.271,8.847Zm0,2.739a.685.685,0,1,1-.685.685A.647.647,0,0,1,12.271,11.586ZM8.847,8.847a.685.685,0,1,1-.685.685A.647.647,0,0,1,8.847,8.847Zm0,2.739a.685.685,0,1,1-.685.685A.647.647,0,0,1,8.847,11.586ZM5.424,8.847a.685.685,0,0,1,0,1.369.685.685,0,1,1,0-1.369Zm0,2.739a.685.685,0,0,1,0,1.369.685.685,0,1,1,0-1.369Z" transform="translate(-2 -2)" fill="#282828"/>
</svg>
