<svg xmlns="http://www.w3.org/2000/svg" width="18.122" height="17.059" viewBox="0 0 18.122 17.059">
  <g id="Group_7230" data-name="Group 7230" transform="translate(0 0)">
    <path id="Path_20000" data-name="Path 20000" d="M-48.99,5.323l.437.44a.854.854,0,0,0,1.163,0l.44-.437a1.672,1.672,0,0,1,1.2-.492,1.672,1.672,0,0,1,1.2.5l.437.44a.854.854,0,0,0,1.163,0l.44-.437a1.671,1.671,0,0,1,1.2-.492,1.671,1.671,0,0,1,1.2.5l.437.44a.854.854,0,0,0,1.163,0l.44-.437a1.672,1.672,0,0,1,1.2-.492,1.626,1.626,0,0,1,.667.155l0-1.335a1.221,1.221,0,0,0-1.236-1.225l-12.207-.042a1.233,1.233,0,0,0-1.244,1.216l0,1.335a1.648,1.648,0,0,1,.687-.15A1.673,1.673,0,0,1-48.99,5.323Z" transform="translate(52.611 5.93)" fill="#c8cad1"/>
    <path id="Path_20001" data-name="Path 20001" d="M-41.854,23.233a.51.51,0,0,0-.5-.432h-1.221l.01-2.817-.1-.1a.854.854,0,0,0-1.163,0l-.44.437a1.672,1.672,0,0,1-1.2.492,1.673,1.673,0,0,1-1.2-.5l-.437-.44a.854.854,0,0,0-1.163,0l-.44.437a1.672,1.672,0,0,1-1.2.492,1.672,1.672,0,0,1-1.2-.5l-.437-.44a.854.854,0,0,0-1.163,0l-.421.437a1.672,1.672,0,0,1-1.2.492,1.672,1.672,0,0,1-1.2-.5l-.437-.44a.854.854,0,0,0-1.163,0l-.1.095-.01,2.867h-1.208a.51.51,0,0,0-.489.369h-.021V23.3c0,.005,0,.01,0,.016s0,.01,0,.015l0,.434a1.221,1.221,0,0,0,1.236,1.225l15.64.054a1.233,1.233,0,0,0,1.244-1.216l0-.591Z" transform="translate(59.966 -7.982)" fill="#c8cad1"/>
    <path id="Path_20002" data-name="Path 20002" d="M-17.721-38.64l.057.019a.579.579,0,0,1,.079-.667l.4-.513.4.5a.619.619,0,0,1,.074.649l.076-.019a1,1,0,0,0,.406-1.563l-.95-1.129-.957,1.141A1.026,1.026,0,0,0-17.721-38.64Z" transform="translate(26.292 41.366)" fill="#c8cad1"/>
    <path id="Path_20003" data-name="Path 20003" d="M-19.882-23.963h.038l-.012,3.624,2.251.008.012-3.624h.038a.362.362,0,0,0,.364-.361.351.351,0,0,0-.361-.364l-2.327-.008a.362.362,0,0,0-.364.361A.35.35,0,0,0-19.882-23.963Z" transform="translate(27.819 27.869)" fill="#c8cad1"/>
  </g>
</svg>
