<svg id="Group_7229" data-name="Group 7229" xmlns="http://www.w3.org/2000/svg" width="15.488" height="12.172" viewBox="0 0 15.488 12.172">
  <path id="Path_19998" data-name="Path 19998" d="M25.047,31.538a1.7,1.7,0,0,1,.363-.747,1.068,1.068,0,0,1,.843-.4H39.069a1.389,1.389,0,0,1,1.416,1.147v.037a2.092,2.092,0,0,1-.363,1.451,4.463,4.463,0,0,1-1.24,1.24c-1.435.964-2.867,1.965-4.29,2.966a7.078,7.078,0,0,1-1.271.787A1.283,1.283,0,0,1,32.178,38a11.438,11.438,0,0,1-1.141-.691q-1.829-1.24-3.639-2.526a8.992,8.992,0,0,1-1.55-1.206,3.04,3.04,0,0,1-.756-1.212A1.764,1.764,0,0,1,25.047,31.538Z" transform="translate(-25.012 -30.387)" fill="#c8cad1"/>
  <path id="Path_19999" data-name="Path 19999" d="M39.075,51.208H26.407A1.416,1.416,0,0,1,25,49.782h0V42.92a11.58,11.58,0,0,0,2.142,1.624c1.224.868,2.455,1.723,3.682,2.588a4.693,4.693,0,0,0,1.24.62,2.23,2.23,0,0,0,1.382-.019,4.813,4.813,0,0,0,1.333-.691c1.593-1.116,3.2-2.219,4.792-3.338.31-.22.6-.477.905-.728v.979c0,1.943-.015,3.887,0,5.827A1.447,1.447,0,0,1,39.075,51.208Z" transform="translate(-25 -39.035)" fill="#c8cad1"/>
</svg>
