<svg xmlns="http://www.w3.org/2000/svg" width="121" height="33" viewBox="0 0 121 33">
  <g id="Group_13202" data-name="Group 13202" transform="translate(-33 -21)">
    <text id="Datatech" transform="translate(63 45)" fill="#fff" font-size="22" font-family="Kanit-Bold, Kanit" font-weight="700"><tspan x="0" y="0">Datatech</tspan></text>
    <g id="Group_13201" data-name="Group 13201" transform="translate(-270.434 -263.995)">
      <path id="Path_40854" data-name="Path 40854" d="M325.026,301.253c0,7.518-5.557,12.242-13.672,12.242h-7.92a5.528,5.528,0,0,1,5.528-5.528h2.112c4.163,0,6.958-2.482,6.958-6.714s-2.794-6.714-6.958-6.714h-2.112a5.528,5.528,0,0,1-5.528-5.528h7.92C319.47,289.011,325.026,293.735,325.026,301.253Z" fill="#fff"/>
      <path id="Path_40855" data-name="Path 40855" d="M316.855,312.548V325.9a6.68,6.68,0,1,1,0-13.354Z" transform="translate(-4.991 -17.969)" fill="#fff"/>
      <path id="Path_40856" data-name="Path 40856" d="M364.57,335.007a12.047,12.047,0,0,1-4.59,2.953,22.453,22.453,0,0,0-.239-7.5,7.137,7.137,0,0,0,.95-3.737,6.8,6.8,0,0,0-1.377-4.35A14.378,14.378,0,0,1,364.57,335.007Z" transform="translate(-42.66 -25.468)" fill="#fff"/>
    </g>
  </g>
</svg>
