<svg id="Profile" xmlns="http://www.w3.org/2000/svg" width="15.351" height="17.056" viewBox="0 0 15.351 17.056">
  <ellipse id="Ellipse_744" cx="4.797" cy="4.738" rx="4.797" ry="4.738" transform="translate(2.878 0)" fill="#c8cad1"/>
  <path id="Path_34198" d="M15.342,2.851h0a1.581,1.581,0,0,0,0-.2,1.828,1.828,0,0,0-.208-.717C14.668,1.02,13.36.607,12.27.374A16.1,16.1,0,0,0,9.9.062L9.072,0h-2.8L5.441.062A16.1,16.1,0,0,0,3.076.374C1.985.576.678,1,.211,1.931A1.828,1.828,0,0,0,0,2.648a1.581,1.581,0,0,0,0,.2H0a1.712,1.712,0,0,0,0,.2,1.83,1.83,0,0,0,.217.709c.466.911,1.774,1.324,2.865,1.558a18.512,18.512,0,0,0,2.365.312l.833.055h2.8l.833-.055a18.512,18.512,0,0,0,2.365-.312c1.091-.21,2.4-.623,2.865-1.558a2.019,2.019,0,0,0,.208-.724A1.523,1.523,0,0,0,15.342,2.851Z" transform="translate(0 11.371)" fill="#c8cad1"/>
</svg>
